<svg width="28" height="92" viewBox="0 0 28 92" fill="none" xmlns="http://www.w3.org/2000/svg">
<path d="M27.2735 6L21.5 0.226497L15.7265 6L21.5 11.7735L27.2735 6ZM1.5 6V5L0.5 6H1.5ZM1.5 85.5H0.5L1.5 86.5V85.5ZM21.5 85.5L11.5 79.7265V91.2735L21.5 85.5ZM21.5 5H16.5V7H21.5V5ZM6.5 5H1.5V7H6.5V5ZM0.5 6V9.975H2.5V6H0.5ZM0.5 17.925V25.875H2.5V17.925H0.5ZM0.5 33.825V41.775H2.5V33.825H0.5ZM0.5 49.725V57.675H2.5V49.725H0.5ZM0.5 65.625V73.575H2.5V65.625H0.5ZM0.5 81.525V85.5H2.5V81.525H0.5ZM1.5 86.5H6.5V84.5H1.5V86.5Z" fill="black"/>
</svg>